<svg id="Layer" enable-background="new 0 0 512 512" height="512" viewBox="0 0 512 512" width="512" xmlns="http://www.w3.org/2000/svg"><path d="m256 368c-61.757 0-112-50.243-112-112s50.243-112 112-112 112 50.243 112 112-50.243 112-112 112z"/><path d="m256 96c-13.255 0-24-10.745-24-24v-48c0-13.255 10.745-24 24-24s24 10.745 24 24v48c0 13.255-10.745 24-24 24z"/><path d="m125.893 149.893c-6.142 0-12.284-2.343-16.971-7.029l-33.942-33.942c-9.373-9.373-9.373-24.569 0-33.941s24.568-9.372 33.941 0l33.941 33.941c9.373 9.373 9.373 24.569 0 33.941-4.685 4.686-10.827 7.03-16.969 7.03z"/><path d="m72 280h-48c-13.255 0-24-10.745-24-24s10.745-24 24-24h48c13.255 0 24 10.745 24 24s-10.745 24-24 24z"/><path d="m91.951 444.049c-6.142 0-12.284-2.343-16.971-7.029-9.373-9.373-9.373-24.569 0-33.941l33.941-33.941c9.373-9.372 24.568-9.372 33.941 0 9.373 9.373 9.373 24.569 0 33.941l-33.941 33.941c-4.686 4.686-10.828 7.029-16.97 7.029z"/><path d="m256 512c-13.255 0-24-10.745-24-24v-48c0-13.255 10.745-24 24-24s24 10.745 24 24v48c0 13.255-10.745 24-24 24z"/><path d="m420.049 444.049c-6.142 0-12.284-2.343-16.971-7.029l-33.941-33.941c-9.373-9.373-9.373-24.569 0-33.941s24.568-9.372 33.941 0l33.941 33.941c9.373 9.373 9.373 24.569 0 33.941-4.686 4.686-10.828 7.029-16.97 7.029z"/><path d="m488 280h-48c-13.255 0-24-10.745-24-24s10.745-24 24-24h48c13.255 0 24 10.745 24 24s-10.745 24-24 24z"/><path d="m386.107 149.893c-6.142 0-12.284-2.343-16.971-7.029-9.373-9.373-9.373-24.569 0-33.941l33.941-33.941c9.373-9.372 24.568-9.372 33.941 0 9.373 9.373 9.373 24.569 0 33.941l-33.941 33.941c-4.685 4.685-10.827 7.029-16.97 7.029z"/></svg>