<svg id="Capa_1" enable-background="new 0 0 512 512" height="512" viewBox="0 0 512 512" width="512"
     xmlns="http://www.w3.org/2000/svg"><linearGradient id="SVGID_1_" gradientUnits="userSpaceOnUse" x1="256" x2="256" y1="512" y2="0"><stop offset="0" stop-color="#addcff"/><stop offset=".5028" stop-color="#eaf6ff"/><stop offset="1" stop-color="#eaf6ff"/></linearGradient><linearGradient id="SVGID_2_" gradientUnits="userSpaceOnUse" x1="256" x2="256" y1="389.5" y2="122.5"><stop offset="0" stop-color="#00c0ff"/><stop offset="1" stop-color="#5558ff"/></linearGradient><g><g><circle cx="256" cy="256" fill="url(#SVGID_1_)" r="256"/></g><g><g><path d="m407 211.5c0-89-113.649-89-151-89s-151 0-151 89c0 53.364 65.206 127.41 108.106 158.488 17.704 12.95 32.138 19.512 42.894 19.512s25.19-6.562 42.868-19.486c43.166-31.289 108.132-105.305 108.132-158.514zm-182.557 105.861c-4.456 2.217-9.759.358-11.918-3.981l-51.898-104.01c-2.195-4.398-.416-9.743 3.973-11.942 4.38-2.173 9.732-.409 11.918 3.981l51.898 104.01c2.195 4.398.417 9.743-3.973 11.942zm40.439-7.961c0 4.919-3.973 8.9-8.882 8.9s-8.882-3.981-8.882-8.9v-124.6c0-4.919 3.973-8.9 8.882-8.9s8.882 3.981 8.882 8.9zm22.675 7.961c-4.389-2.199-6.167-7.544-3.973-11.942l51.898-104.01c2.177-4.389 7.538-6.154 11.918-3.981 4.389 2.199 6.167 7.544 3.973 11.942l-51.898 104.01c-2.161 4.343-7.468 6.196-11.918 3.981zm-142.408 12.765c-2.949 4.409-4.62 9.657-4.62 14.874 0 14.723 11.953 26.7 26.647 26.7h19.481c-15.858-13.452-28.358-26.408-41.508-41.574zm180.187 41.574h19.488c14.694 0 26.647-11.977 26.647-26.7 0-5.272-1.683-10.588-4.609-14.906-13.366 15.406-25.593 28.094-41.526 41.606z" fill="url(#SVGID_2_)"/></g></g></g></svg>