<svg id="Layer_1" enable-background="new 0 0 512 512" height="512" viewBox="0 0 512 512" width="512" xmlns="http://www.w3.org/2000/svg"><g><path d="m51.214 465.516h100.958v-71.208c0-27.879-22.6-50.479-50.479-50.479-27.879 0-50.479 22.6-50.479 50.479z" fill="#22b37f"/><path d="m101.693 343.83c-5.391 0-10.581.854-15.453 2.419 20.318 6.528 35.026 25.573 35.026 48.06v71.208h30.905v-71.208c.001-27.879-22.599-50.479-50.478-50.479z" fill="#09a76d"/><path d="m111.886 465.516h100.958v-23.569c0-27.879-22.6-50.479-50.479-50.479-27.879 0-50.479 22.6-50.479 50.479z" fill="#57be92"/><path d="m162.365 391.469c-5.392 0-10.581.854-15.453 2.419 20.318 6.528 35.026 25.572 35.026 48.06v23.569h30.905v-23.569c0-27.879-22.6-50.479-50.478-50.479z" fill="#22b37f"/><path d="m328.113 381.115h61.811v89.729h-61.811z" fill="#d6694b"/><path d="m359.018 381.115h30.905v89.729h-30.905z" fill="#c4573a"/><path d="m496.547 488.306h-481.094c-8.535 0-15.453-6.919-15.453-15.453 0-8.534 6.918-15.453 15.453-15.453h481.095c8.534 0 15.453 6.918 15.453 15.453-.001 8.534-6.919 15.453-15.454 15.453z" fill="#f3f0f3"/><path d="m496.547 457.4h-30.905c8.534 0 15.453 6.918 15.453 15.453 0 8.534-6.918 15.453-15.453 15.453h30.905c8.534 0 15.453-6.918 15.453-15.453 0-8.534-6.918-15.453-15.453-15.453z" fill="#e2dee2"/><path d="m501.989 358.07-121.987-210.457c-9.351-16.132-32.617-16.132-41.967 0l-121.988 210.457c-9.388 16.196 2.282 36.489 20.984 36.489h243.975c18.701 0 30.371-20.293 20.983-36.489z" fill="#09a76d"/><path d="m501.989 358.07-121.987-210.457c-7.835-13.516-25.434-15.701-36.437-6.567 2.129 1.767 4.015 3.952 5.531 6.567l121.988 210.457c9.388 16.196-2.282 36.489-20.984 36.489h30.905c18.702 0 30.372-20.293 20.984-36.489z" fill="#02905d"/><path d="m342.37 90.374-96.684 166.805c-7.435 12.828 1.821 28.892 16.648 28.892h193.367c14.827 0 24.083-16.064 16.648-28.892l-96.683-166.805c-7.414-12.791-25.882-12.791-33.296 0z" fill="#22b37f"/><path d="m472.333 257.149-96.684-166.805c-7.047-12.157-24.056-12.746-32.084-1.785.415.567.814 1.156 1.178 1.785l96.684 166.805c7.44 12.837-1.809 28.921-16.631 28.921h30.905c14.823 0 24.072-16.084 16.632-28.921z" fill="#09a76d"/><path d="m429.44 173.88h-140.84c-10.81 0-17.57-11.7-12.17-21.06l26.7-46.29c12.31-3.74 25.15-10.15 38.22-10.15 7.96 0 16 2.38 24.05 9.17 18.6 15.71 33.57 29.64 62.27 23.12l13.93 24.15c5.41 9.36-1.35 21.06-12.16 21.06z" fill="#57be92"/><path d="m441.593 152.795-70.418-122.074c-5.404-9.369-18.909-9.369-24.313 0l-3.296 5.714 67.122 116.36c5.406 9.372-1.348 21.089-12.157 21.089h30.905c10.808 0 17.563-11.717 12.157-21.089z" fill="#22b37f"/><path d="m371.175 30.721c-5.404-9.369-18.909-9.369-24.313 0l-45.864 79.509c20.412-5.677 42.349-20.205 64.398-1.598 18.946 15.988 34.116 30.132 63.841 22.742z" fill="#f3f0f3"/><g><g><g><path d="m371.175 30.721c-5.404-9.369-18.909-9.369-24.313 0l-3.296 5.714 54.356 94.23c8.758 3.097 18.729 3.838 31.315.71z" fill="#e2dee2"/></g></g></g></g></svg>