<svg id="Capa_1" enable-background="new 0 0 510 510" height="512" viewBox="0 0 510 510" width="512" xmlns="http://www.w3.org/2000/svg" xmlns:xlink="http://www.w3.org/1999/xlink"><linearGradient id="lg1"><stop offset="0" stop-color="#fff3be"/><stop offset=".5725" stop-color="#ffd15b"/><stop offset="1" stop-color="#eca026"/></linearGradient><linearGradient id="SVGID_1_" gradientUnits="userSpaceOnUse" x1="3.287" x2="516.9" xlink:href="#lg1" y1="255" y2="255"/><linearGradient id="SVGID_2_" gradientUnits="userSpaceOnUse" x1="6" x2="162.72" xlink:href="#lg1" y1="187.837" y2="187.837"/><linearGradient id="SVGID_3_" gradientUnits="userSpaceOnUse" x1="-108" x2="462.221" xlink:href="#lg1" y1="255.003" y2="255.003"/><linearGradient id="SVGID_4_" gradientUnits="userSpaceOnUse" x1="21.43" x2="94.841" xlink:href="#lg1" y1="162.825" y2="162.825"/><linearGradient id="SVGID_5_" gradientUnits="userSpaceOnUse" x1="-48.13" x2="107.524" xlink:href="#lg1" y1="129.938" y2="129.938"/><linearGradient id="SVGID_6_" gradientUnits="userSpaceOnUse" x1="172.392" x2="232.796" y1="108.954" y2="108.954"><stop offset="0" stop-color="#537983"/><stop offset="1" stop-color="#3e5959"/></linearGradient><linearGradient id="SVGID_7_" gradientUnits="userSpaceOnUse" x1="-100" x2="339.645" xlink:href="#lg1" y1="362.989" y2="362.989"/><linearGradient id="lg2"><stop offset="0" stop-color="#fecec8"/><stop offset=".5725" stop-color="#fe73c5"/><stop offset="1" stop-color="#f1239a"/></linearGradient><linearGradient id="SVGID_8_" gradientUnits="userSpaceOnUse" x1="168.042" x2="438.098" xlink:href="#lg2" y1="337.977" y2="337.977"/><linearGradient id="SVGID_9_" gradientUnits="userSpaceOnUse" x1="124" x2="420.985" xlink:href="#lg2" y1="337.977" y2="337.977"/><g><path d="m339.716 206.245c10.575-18.745 16.636-40.376 16.688-63.42.166-73.305-61.241-131.633-134.531-130.131-47.174.967-81.779 16.597-106.882 36.7-39.084 31.299-61.24 79.126-61.24 129.198v97.325c0 14.059 1.747 28.06 5.282 41.666 14.545 55.978 66.775 179.751 244.29 179.751 114.145 0 206.677-92.532 206.677-206.677 0-50.34-80.402-78.475-170.284-84.412z" fill="url(#SVGID_1_)"/><path d="m56.202 149.938c-1.615 9.399-2.45 18.983-2.45 28.653v43.205c7.34 3.669 15.646 5.738 24.524 5.738 31.006 0 56.142-25.135 56.142-56.142-.001-19.814-45.424-26.964-78.216-21.454z" fill="url(#SVGID_2_)"/><path d="m339.716 206.245c10.521-18.648 16.573-40.153 16.687-63.064.365-73.791-61.479-132.229-135.249-130.471-6.302.15-12.37.57-18.229 1.22 63.616 8.798 113.609 62.745 113.459 128.895-.029 13.002-1.972 25.554-5.558 37.392-4.044 13.349 4.901 27.132 18.74 28.874 77.083 9.701 140.414 36.888 140.414 81.566 0 108.341-83.366 197.2-189.448 205.956 7.362.467 14.948.72 22.792.72 114.144.001 206.676-92.531 206.676-206.676 0-50.34-80.402-78.475-170.284-84.412z" fill="url(#SVGID_3_)"/><g><path d="m134.417 146.382c0 31.006-25.136 56.142-56.142 56.142s-55.088-25.136-55.088-56.142 111.23-31.007 111.23 0z" fill="url(#SVGID_4_)"/><path d="m134.417 146.382c0 31.006-134.417 31.006-134.417 0s47.268-56.142 78.275-56.142 56.142 25.135 56.142 56.142z" fill="url(#SVGID_5_)"/></g><path d="m204.257 126.994c-15.536 0-28.176-12.64-28.176-28.176 0-4.366 3.539-7.905 7.905-7.905s7.905 3.539 7.905 7.905c0 6.819 5.548 12.366 12.367 12.366s12.366-5.548 12.366-12.366c0-4.366 3.539-7.905 7.905-7.905s7.905 3.539 7.905 7.905c-.002 15.537-12.641 28.176-28.177 28.176z" fill="url(#SVGID_6_)"/><g><path d="m389.654 362.988c0 52.153-85.945 94.431-138.097 94.431s-94.431-42.278-94.431-94.431 42.278-94.431 94.431-94.431 138.097 42.279 138.097 94.431z" fill="url(#SVGID_7_)"/><path d="m414.665 337.977c0 52.153-85.945 94.431-138.097 94.431s-94.431-42.278-94.431-94.431 42.278-94.431 94.431-94.431 138.097 42.279 138.097 94.431z" fill="url(#SVGID_8_)"/><path d="m276.568 243.547c-6.532 0-12.909.664-19.068 1.927 51.382 8.82 117.146 46.884 117.146 92.504s-65.763 83.684-117.146 92.504c6.159 1.263 12.536 1.927 19.068 1.927 52.152 0 138.097-42.278 138.097-94.431s-85.945-94.431-138.097-94.431z" fill="url(#SVGID_9_)"/></g></g></svg>