<svg xmlns="http://www.w3.org/2000/svg" width="138" height="138" viewBox="0 0 138 138">
  <g id="clown" transform="translate(0 0)">
    <path id="Path_521" data-name="Path 521" d="M138,69a68.964,68.964,0,0,1-33.686,59.289c-2.906,1.733-5.208-2.544-8.367-1.247-1.865.768-4.509,7.258-6.452,7.859q-3.113.97-6.35,1.647c-4.566.951-8.64-4.487-13.489-4.487a61.8,61.8,0,0,1-30.594-7.529c-4.374-2.315-10.8.382-14.548-2.785a69.417,69.417,0,0,1-6.924-6.725c-1.237-1.383,1.919-5.622.8-7.1-2.008-2.636-8.167-2.614-9.781-5.528A69,69,0,1,1,138,69Z" transform="translate(0 0)" fill="#453d81"/>
    <g id="Group_385" data-name="Group 385" transform="translate(1.42 30.452)">
      <path id="Path_522" data-name="Path 522" d="M5.27,272.337h1.4a6.571,6.571,0,0,0,6.568-6.568,6.568,6.568,0,0,1,6.566-6.568H54.33a6.568,6.568,0,0,1,0,13.137H43.452a6.567,6.567,0,1,0,0,13.134H44.81a6.568,6.568,0,0,1,0,13.137H19.966c-1.584-2.2-6.191-4.5-7.512-6.878A68.533,68.533,0,0,1,5.27,272.337Z" transform="translate(-5.27 -219.789)" fill="#524798"/>
      <path id="Path_523" data-name="Path 523" d="M267.97,132.685a6.568,6.568,0,0,1,6.568-6.568h21.829a6.57,6.57,0,0,0,6.568-6.568,6.568,6.568,0,0,1,6.569-6.568h12.474a68.615,68.615,0,0,1,7.393,14.334,6.4,6.4,0,0,0-.868.728,6.566,6.566,0,0,0,4.145,11.191,69.222,69.222,0,0,1,1.094,12.3c0,.288,0,.574-.005.863H299.985a6.568,6.568,0,0,1-6.568-6.568,6.568,6.568,0,0,0-6.568-6.568H274.538a6.571,6.571,0,0,1-6.568-6.568Z" transform="translate(-197.164 -112.98)" fill="#524798"/>
    </g>
    <g id="Group_388" data-name="Group 388" transform="translate(4.822 0.134)">
      <path id="Path_524" data-name="Path 524" d="M90.171.5h-.814a21.436,21.436,0,0,0-16.89,8.218A31.249,31.249,0,0,0,51.3.5H49.254A31.362,31.362,0,0,0,17.892,31.862V45.691A31.362,31.362,0,0,0,49.254,77.053H51.3a31.248,31.248,0,0,0,21.163-8.218,21.436,21.436,0,0,0,16.89,8.218h.814a21.48,21.48,0,0,0,21.48-21.48V21.98A21.48,21.48,0,0,0,90.171.5Z" transform="translate(-17.892 -0.5)" fill="#95d6a4"/>
      <path id="Path_525" data-name="Path 525" d="M59.82,75.879A31.382,31.382,0,0,1,51.3,77.051H49.255A31.362,31.362,0,0,1,17.892,45.689V31.862A31.364,31.364,0,0,1,49.255.5H51.3A31.382,31.382,0,0,1,59.82,1.671a31.378,31.378,0,0,0-22.837,30.19V45.689A31.378,31.378,0,0,0,59.82,75.879Z" transform="translate(-17.892 -0.499)" fill="#78c2a4"/>
      <path id="Path_526" data-name="Path 526" d="M181.336,285.5v22.93a8.757,8.757,0,0,1-17.513,0V285.5Z" transform="translate(-124.49 -208.68)" fill="#ffddce"/>
      <path id="Path_527" data-name="Path 527" d="M181.335,285.5v21.853a26.333,26.333,0,0,1-17.513-3.7V285.5h17.513Z" transform="translate(-124.489 -208.68)" fill="#ffcbbe"/>
      <path id="Path_528" data-name="Path 528" d="M167.943,318.521v21.456a8.75,8.75,0,0,1-4.12-7.427V318.521Z" transform="translate(-124.49 -232.804)" fill="#ffcbbe"/>
      <path id="Path_529" data-name="Path 529" d="M142.879,191.938H84.693a6.821,6.821,0,0,1,0-13.642h58.186a6.821,6.821,0,0,1,0,13.642Z" transform="translate(-61.706 -130.374)" fill="#ffcbbe"/>
      <path id="Path_530" data-name="Path 530" d="M95.281,198.619a2.914,2.914,0,0,1,0-5.828h58.186a2.914,2.914,0,0,1,0,5.828Z" transform="translate(-72.294 -140.962)" fill="#eaac9d"/>
      <path id="Path_531" data-name="Path 531" d="M143.964,145.388a26.309,26.309,0,0,1-26.309-26.309V95.144a26.309,26.309,0,0,1,52.618,0v23.935A26.309,26.309,0,0,1,143.964,145.388Z" transform="translate(-90.766 -50.416)" fill="#ffddce"/>
      <path id="Path_532" data-name="Path 532" d="M149.581,408.333v4.4a69.136,69.136,0,0,1-58.631-14.8,30.237,30.237,0,0,1,58.631,10.4Z" transform="translate(-71.259 -276.325)" fill="#ffd064"/>
      <path id="Path_533" data-name="Path 533" d="M126.339,378.914a30.249,30.249,0,0,0-23.169,27.279,68.963,68.963,0,0,1-12.221-8.256,30.272,30.272,0,0,1,35.389-19.024Z" transform="translate(-71.259 -276.325)" fill="#ffc250"/>
      <path id="Path_534" data-name="Path 534" d="M149.745,144.751a26.326,26.326,0,0,1-32.09-25.67V95.147a26.326,26.326,0,0,1,32.09-25.67,26.316,26.316,0,0,0-20.53,25.67v23.934A26.316,26.316,0,0,0,149.745,144.751Z" transform="translate(-90.766 -50.419)" fill="#ffcbbe"/>
      <path id="Path_535" data-name="Path 535" d="M166.32,157.928a8.741,8.741,0,0,1-8.732-8.731v-6.96a8.732,8.732,0,0,1,17.463,0v6.96A8.742,8.742,0,0,1,166.32,157.928Z" transform="translate(-119.936 -97.656)" fill="#f6f9f9"/>
      <path id="Path_536" data-name="Path 536" d="M242.756,157.928a8.741,8.741,0,0,1-8.732-8.731v-6.96a8.732,8.732,0,0,1,17.463,0v6.96A8.741,8.741,0,0,1,242.756,157.928Z" transform="translate(-175.77 -97.656)" fill="#f6f9f9"/>
      <path id="Path_537" data-name="Path 537" d="M184.27,156.847v6.962a3.336,3.336,0,0,1-.175,1.07,3.341,3.341,0,0,0-6.331,0,3.336,3.336,0,0,1-.175-1.07v-6.962a3.341,3.341,0,0,1,6.682,0Z" transform="translate(-134.545 -112.267)" fill="#5766cb"/>
      <path id="Path_538" data-name="Path 538" d="M260.71,156.847v6.962a3.336,3.336,0,0,1-.175,1.07,3.341,3.341,0,0,0-6.331,0,3.336,3.336,0,0,1-.175-1.07v-6.962a3.341,3.341,0,0,1,6.682,0Z" transform="translate(-190.382 -112.267)" fill="#5766cb"/>
      <path id="Path_539" data-name="Path 539" d="M185.028,261.429a12.258,12.258,0,0,1-12.23-11.673,6.889,6.889,0,0,1,6.844-7.322,6.727,6.727,0,0,1,1.668.235,14.114,14.114,0,0,0,7.436,0,6.74,6.74,0,0,1,1.668-.235,6.889,6.889,0,0,1,6.844,7.322A12.258,12.258,0,0,1,185.028,261.429Z" transform="translate(-131.04 -177.224)" fill="#f6f9f9"/>
      <path id="Path_540" data-name="Path 540" d="M197.215,269.128a7.75,7.75,0,0,1-7.741-7.741,2.251,2.251,0,0,1,4.5,0,3.239,3.239,0,0,0,6.477,0,2.251,2.251,0,0,1,4.5,0A7.75,7.75,0,0,1,197.215,269.128Z" transform="translate(-143.227 -189.425)" fill="#dd5ca2"/>
      <path id="Path_541" data-name="Path 541" d="M208.38,197.3h-5.038a7.5,7.5,0,0,0,0,15h5.038a7.5,7.5,0,0,0,0-15Z" transform="translate(-147.879 -144.253)" fill="#dd5ca2"/>
      <path id="Path_542" data-name="Path 542" d="M203.685,210.1a7.472,7.472,0,0,0,5,2.189c-.1.005-.2.008-.3.008H203.34a7.5,7.5,0,0,1,0-15h5.038c.1,0,.2,0,.3.008a7.5,7.5,0,0,0-5,12.795Z" transform="translate(-147.879 -144.257)" fill="#c14098"/>
      <path id="Path_543" data-name="Path 543" d="M277.353,243.025h-3.765a2.42,2.42,0,0,1,0-4.84h3.765a2.42,2.42,0,0,1,0,4.84Z" transform="translate(-202.902 -174.121)" fill="#dd5ca2"/>
      <path id="Path_544" data-name="Path 544" d="M146.677,243.025h-3.765a2.42,2.42,0,1,1,0-4.84h3.765a2.42,2.42,0,1,1,0,4.84Z" transform="translate(-107.447 -174.121)" fill="#dd5ca2"/>
      <g id="Group_386" data-name="Group 386" transform="translate(22.987 17.28)">
        <path id="Path_545" data-name="Path 545" d="M265.386,80.737H251.638a13.679,13.679,0,0,1-13.679-13.679V64.611h27.427V80.737Z" transform="translate(-201.631 -64.611)" fill="#95d6a4"/>
        <path id="Path_546" data-name="Path 546" d="M108.9,80.737h20.147a15.621,15.621,0,0,0,15.621-15.621v-.5H108.9Z" transform="translate(-107.355 -64.612)" fill="#95d6a4"/>
        <path id="Path_547" data-name="Path 547" d="M103.178,125.131h3.585a8.623,8.623,0,0,0,8.623-8.623V105.514H103.178Z" transform="translate(-103.178 -94.489)" fill="#95d6a4"/>
      </g>
      <g id="Group_387" data-name="Group 387" transform="translate(23.052 96.674)">
        <path id="Path_548" data-name="Path 548" d="M206.744,363.653l18.447-4.325a5.559,5.559,0,1,1,1.244,10.96,5.564,5.564,0,1,1-1.244,10.96l-18.447-4.325" transform="translate(-178.895 -359.175)" fill="#dd5ca2"/>
        <path id="Path_549" data-name="Path 549" d="M128.737,363.653l-18.447-4.325a5.559,5.559,0,1,0-1.244,10.96,5.564,5.564,0,1,0,1.244,10.96l18.447-4.325" transform="translate(-103.419 -359.175)" fill="#dd5ca2"/>
      </g>
      <path id="Path_550" data-name="Path 550" d="M188.7,382.128a4.923,4.923,0,0,1-4.923-4.923V365.672a4.923,4.923,0,0,1,9.845,0v11.534A4.922,4.922,0,0,1,188.7,382.128Z" transform="translate(-139.069 -263.65)" fill="#c14098"/>
      <circle id="Ellipse_88" data-name="Ellipse 88" cx="5.378" cy="5.378" r="5.378" transform="translate(47.565 121.619)" fill="#95d6a4"/>
    </g>
    <g id="Group_389" data-name="Group 389" transform="translate(105.474 48.461)">
      <circle id="Ellipse_89" data-name="Ellipse 89" cx="10.909" cy="10.909" r="10.909" transform="translate(0 0.001)" fill="#ffd064"/>
      <path id="Path_551" data-name="Path 551" d="M405.568,201.094a10.909,10.909,0,1,1,0-20.777,10.912,10.912,0,0,0,0,20.777Z" transform="translate(-391.323 -179.796)" fill="#ffc250"/>
    </g>
    <g id="Group_390" data-name="Group 390" transform="translate(74.551 5.169)">
      <circle id="Ellipse_90" data-name="Ellipse 90" cx="10.909" cy="10.909" r="10.909" transform="translate(0 0.001)" fill="#dd5ca2"/>
      <path id="Path_552" data-name="Path 552" d="M290.842,40.477a10.909,10.909,0,1,1,0-20.777,10.912,10.912,0,0,0,0,20.777Z" transform="translate(-276.597 -19.179)" fill="#c14098"/>
    </g>
    <g id="Group_391" data-name="Group 391" transform="translate(22.968 16.061)">
      <circle id="Ellipse_91" data-name="Ellipse 91" cx="10.909" cy="10.909" r="10.909" transform="translate(0 0.001)" fill="#ffd064"/>
      <path id="Path_553" data-name="Path 553" d="M99.459,80.887a10.909,10.909,0,1,1,0-20.777,10.912,10.912,0,0,0,0,20.777Z" transform="translate(-85.215 -59.589)" fill="#ffc250"/>
    </g>
    <path id="Path_554" data-name="Path 554" d="M346.859,433.1v11.555a68.456,68.456,0,0,1-14.819,6.612V433.1Z" transform="translate(-242.545 -316.366)" fill="#ffd064"/>
    <path id="Path_555" data-name="Path 555" d="M337.754,433.1v16.11q-2.8,1.152-5.714,2.057V433.1Z" transform="translate(-242.545 -316.366)" fill="#ffc250"/>
    <g id="Group_392" data-name="Group 392" transform="translate(5.528 73.467)">
      <circle id="Ellipse_92" data-name="Ellipse 92" cx="10.909" cy="10.909" r="10.909" transform="translate(0 0.001)" fill="#dd5ca2"/>
      <path id="Path_556" data-name="Path 556" d="M34.753,293.873a10.909,10.909,0,1,1,0-20.777,10.912,10.912,0,0,0,0,20.777Z" transform="translate(-20.509 -272.575)" fill="#c14098"/>
    </g>
    <path id="Path_557" data-name="Path 557" d="M356.1,409.822H338.359a6.319,6.319,0,0,0,0,12.638H356.1a6.319,6.319,0,1,0,0-12.638Z" transform="translate(-242.545 -299.362)" fill="#ffddce"/>
    <path id="Path_558" data-name="Path 558" d="M362.428,427.441a6.319,6.319,0,0,1-6.32,6.318H338.362a6.324,6.324,0,0,1-5.943-8.469,6.336,6.336,0,0,0,5.943,4.167h17.746a6.327,6.327,0,0,0,5.946-4.167A6.318,6.318,0,0,1,362.428,427.441Z" transform="translate(-242.548 -310.661)" fill="#ffcbbe"/>
    <path id="Path_559" data-name="Path 559" d="M46.94,386.211a6.316,6.316,0,0,1-6.027,6.31,69.183,69.183,0,0,1-8.983-12.63h8.69a6.322,6.322,0,0,1,6.321,6.321Z" transform="translate(-23.324 -277.498)" fill="#ffddce"/>
    <path id="Path_560" data-name="Path 560" d="M61.688,397.511a6.315,6.315,0,0,1-6.027,6.31q-1.856-2.074-3.542-4.294h3.248a6.327,6.327,0,0,0,5.946-4.167A6.319,6.319,0,0,1,61.688,397.511Z" transform="translate(-38.072 -288.798)" fill="#ffcbbe"/>
    <g id="Group_393" data-name="Group 393" transform="translate(94.18 90.676)">
      <circle id="Ellipse_93" data-name="Ellipse 93" cx="10.909" cy="10.909" r="10.909" transform="translate(0 0.001)" fill="#95d6a4"/>
      <path id="Path_561" data-name="Path 561" d="M363.668,357.721a10.909,10.909,0,1,1,0-20.777,10.912,10.912,0,0,0,0,20.777Z" transform="translate(-349.423 -336.423)" fill="#78c2a4"/>
    </g>
  </g>
</svg>
