<svg xmlns="http://www.w3.org/2000/svg" width="36" height="36" viewBox="0 0 36 36">
  <g id="Group_141" data-name="Group 141" transform="translate(-318 -191)">
    <circle id="Ellipse_24" data-name="Ellipse 24" cx="18" cy="18" r="18" transform="translate(318 191)" fill="#3ab081"/>
    <path id="Icon_awesome-check" data-name="Icon awesome-check" d="M6.793,19.2l-6.5-6.5a1,1,0,0,1,0-1.414L1.707,9.87a1,1,0,0,1,1.414,0L7.5,14.249,16.879,4.87a1,1,0,0,1,1.414,0l1.414,1.414a1,1,0,0,1,0,1.414L8.207,19.2A1,1,0,0,1,6.793,19.2Z" transform="translate(326.2 197)" fill="#fff"/>
  </g>
</svg>
