<svg id="Capa_1" enable-background="new 0 0 512 512" height="512" viewBox="0 0 512 512" width="512" xmlns="http://www.w3.org/2000/svg"><g><path d="m256 361c33.084 0 60-26.916 60-60s-26.916-60-60-60-60 26.916-60 60 26.916 60 60 60zm0-90c16.542 0 30 13.458 30 30s-13.458 30-30 30-30-13.458-30-30 13.458-30 30-30z"/><path d="m256 211c33.084 0 60-26.916 60-60 0-25.605-34.552-90.316-46.92-112.344-2.656-4.729-7.657-7.656-13.08-7.656s-10.424 2.927-13.08 7.656c-12.442 22.16-46.92 86.77-46.92 112.344 0 33.084 26.916 60 60 60zm0-133.32c16.063 31.167 30 63.125 30 73.32 0 16.542-13.458 30-30 30s-30-13.458-30-30c0-10.196 13.937-42.154 30-73.32z"/><path d="m363.523 280.26c-8.155-1.485-15.961 3.916-17.448 12.065-1.486 8.15 3.916 15.962 12.065 17.448 35.194 6.419 123.86 30.39 123.86 66.227 0 16.799-22.817 35.335-61.035 49.585-43.956 16.389-102.542 25.415-164.965 25.415s-121.009-9.026-164.965-25.415c-38.218-14.25-61.035-32.786-61.035-49.585 0-35.837 88.666-59.808 123.86-66.226 8.149-1.486 13.552-9.298 12.065-17.448s-9.296-13.548-17.448-12.065c-92.972 16.955-148.477 52.746-148.477 95.739 0 30.734 28.608 58.326 80.554 77.694 47.226 17.609 109.533 27.306 175.446 27.306s128.22-9.697 175.446-27.306c51.946-19.368 80.554-46.96 80.554-77.694 0-42.993-55.505-78.784-148.477-95.74z"/><path d="m179.202 349.955c-1.265-8.187-8.927-13.798-17.115-12.534-49.855 7.703-72.087 19.601-72.087 38.579 0 21.916 30.204 30.712 56.518 35.927 29.524 5.851 68.405 9.073 109.482 9.073s79.958-3.222 109.482-9.073c26.314-5.215 56.518-14.011 56.518-35.927 0-18.978-22.232-30.876-72.087-38.579-8.194-1.265-15.85 4.346-17.115 12.534s4.347 15.85 12.534 17.115c18.859 2.914 31.109 6.257 38.585 8.998-6.47 2.399-16.995 5.374-33.784 8.158-26.336 4.368-59.767 6.774-94.133 6.774s-67.797-2.406-94.133-6.775c-16.789-2.785-27.313-5.759-33.784-8.158 7.476-2.741 19.726-6.084 38.585-8.998 8.187-1.265 13.799-8.927 12.534-17.114z"/></g></svg>