<svg xmlns="http://www.w3.org/2000/svg" width="161" height="161" viewBox="0 0 161 161">
  <path id="scheduling" d="M35.533,59.117A12.593,12.593,0,0,0,22.955,71.7v9.434A12.593,12.593,0,0,0,35.533,93.707h9.434A12.593,12.593,0,0,0,57.545,81.129V71.7A12.593,12.593,0,0,0,44.967,59.117Zm9.434,22.012H35.533V71.7h9.434l.007,9.434Zm71.066,44.652h9.434A12.593,12.593,0,0,0,138.045,113.2V103.77a12.593,12.593,0,0,0-12.578-12.578h-9.434a12.593,12.593,0,0,0-12.578,12.578V113.2A12.593,12.593,0,0,0,116.033,125.781Zm0-22.012h9.434l.007,9.434h-9.441Zm32.389.629V37.734a12.593,12.593,0,0,0-12.578-12.578h-8.176v6.289a6.289,6.289,0,1,1-12.578,0V25.156H86.475v6.289a6.289,6.289,0,1,1-12.578,0V25.156H45.6v6.289a6.289,6.289,0,1,1-12.578,0V25.156H25.156A12.593,12.593,0,0,0,12.578,37.734v98.109a12.593,12.593,0,0,0,12.578,12.578H135.844a12.593,12.593,0,0,0,12.578-12.578,6.289,6.289,0,1,1,12.578,0A25.184,25.184,0,0,1,135.844,161H25.156A25.184,25.184,0,0,1,0,135.844V37.734A25.184,25.184,0,0,1,25.156,12.578h7.861V6.289a6.289,6.289,0,1,1,12.578,0v6.289H73.9V6.289a6.289,6.289,0,1,1,12.578,0v6.289H115.09V6.289a6.289,6.289,0,0,1,12.578,0v6.289h8.176A25.184,25.184,0,0,1,161,37.734V104.4a6.289,6.289,0,0,1-12.578,0ZM80.5,75.469a6.289,6.289,0,1,1-6.289-6.289A6.289,6.289,0,0,1,80.5,75.469Zm23.584,0a6.289,6.289,0,1,1-6.289-6.289A6.289,6.289,0,0,1,104.084,75.469Zm11.006,0a6.289,6.289,0,1,1,6.289,6.289A6.289,6.289,0,0,1,115.09,75.469Zm0,0" fill="#3ab081" opacity="0.3"/>
</svg>
