<svg height="512" viewBox="0 0 256 256" width="512" xmlns="http://www.w3.org/2000/svg"><circle cx="43.654" cy="92.409" fill="#f87023" r="12.5"/><circle cx="131.948" cy="92.409" fill="#f8af23" r="12.5"/><path d="m155.488 226.039h-133.188v-18.056a53.944 53.944 0 0 1 53.944-53.944h23.113a53.944 53.944 0 0 1 53.943 53.944z" fill="#63bce7"/><path d="m94.745 154.039h-18.5a53.944 53.944 0 0 0 -53.945 53.944v18.056h18.5v-18.056a53.944 53.944 0 0 1 53.945-53.944z" fill="#6377e7"/><rect fill="#f8af23" height="53.419" rx="13.5" width="27" x="74.301" y="118.036"/><path d="m74.3 131.536v26.419a13.554 13.554 0 0 0 11.686 13.378v-53.175a13.554 13.554 0 0 0 -11.686 13.378z" fill="#f87023"/><rect fill="#f8af23" height="110.075" rx="44.147" width="88.294" x="43.654" y="35.056"/><path d="m62.154 100.984v-21.784a44.314 44.314 0 0 1 34.9-43.157 43.876 43.876 0 0 0 -9.25-.99 44.277 44.277 0 0 0 -44.15 44.147v21.781a44.277 44.277 0 0 0 44.146 44.15 43.876 43.876 0 0 0 9.25-.99 44.314 44.314 0 0 1 -34.896-43.157z" fill="#f87023"/><path d="m74.301 154.073 13.5 17.591-14.625 7.875-5.918-24.755 7.043-7.995z" fill="#f46275"/><path d="m101.301 154.073-13.5 17.591 14.625 7.875 5.918-24.755-7.043-7.995z" fill="#f46275"/><path d="m124.6 31.271a22.328 22.328 0 0 0 -17.4 8.312 43.732 43.732 0 0 0 -19.4-4.528 44.277 44.277 0 0 0 -44.146 44.145v9.78h7.272v-5.9s14.722-3.71 14.861-19.96c0 0 18.732 16.629 52.487 11.988a22.375 22.375 0 1 0 6.326-43.837z" fill="#9e9e9e"/><path d="m97.027 36.051a43.768 43.768 0 0 0 -9.226-1 44.277 44.277 0 0 0 -44.147 44.149v9.78h7.272v-5.9a21.634 21.634 0 0 0 11.45-8.28 44.36 44.36 0 0 1 34.651-38.749z" fill="#707070"/><path d="m162.836 140.844 26.356 9.454-27.169 75.741h-14.916c-6.318-2.266-9.6-14.576-7.336-20.894z" fill="#63bce7"/><path d="m189.191 150.298-16.391-5.88-29.277 81.621h18.5z" fill="#63e2e7"/><path d="m160.62 145.328h28v8.252h-28z" fill="#f46275" transform="matrix(-.941 -.338 .338 -.941 288.525 349.09)"/><path d="m175.477 142.535h8.252v17.414h-8.252z" fill="#f48875" transform="matrix(.338 -.941 .941 .338 -23.398 269.232)"/><path d="m185.555 148.993 19.275-7.5a2.62 2.62 0 0 0 1.67-2.442v-1.951a2.62 2.62 0 0 0 -2.62-2.62h-32.848a5.322 5.322 0 0 0 -5.078 3.728l-1.06 3.375z" fill="#f8af23"/><path d="m203.88 134.479h-18.5a2.62 2.62 0 0 1 2.62 2.621v1.953a2.62 2.62 0 0 1 -1.67 2.442l-10.4 4.047 9.626 3.453 19.275-7.5a2.62 2.62 0 0 0 1.67-2.442v-1.953a2.62 2.62 0 0 0 -2.621-2.621z" fill="#f8d323"/><path d="m241.776 35.939-17.732-17.732h-61.21v108.134h78.942z" fill="#63bce7"/><path d="m224.044 18.207h-18.5l17.732 17.732v90.402h18.5v-90.402z" fill="#63e2e7"/><path d="m173.734 90.468h12.8v35.873h-12.8z" fill="#9e9e9e"/><path d="m195.905 79.165h12.8v47.176h-12.8z" fill="#f8af23"/><path d="m218.077 72.01h12.8v54.331h-12.8z" fill="#f46275"/><path d="m202.305 35.056v16.854h-16.854a16.854 16.854 0 1 0 16.854-16.854z" fill="#f8af23"/><path d="m202.305 35.056a16.854 16.854 0 0 0 -16.854 16.854h16.854z" fill="#f46275"/><g fill="#3f3679"><path d="m90.925 122.509a1.5 1.5 0 0 0 0 3 6.138 6.138 0 0 0 1.5-12.09v-8.51a1.5 1.5 0 0 0 -3 0v9.83a1.5 1.5 0 0 0 1.5 1.5c.022 0 .042-.005.063-.006a3.139 3.139 0 0 1 -.063 6.277z"/><path d="m94.229 129.7a1.5 1.5 0 0 0 -2.121 0 6.427 6.427 0 0 1 -10.974-4.544 1.5 1.5 0 0 0 -3 0 9.431 9.431 0 0 0 16.095 6.666 1.5 1.5 0 0 0 0-2.122z"/><path d="m74.562 93.628a2.779 2.779 0 0 0 -2.777 2.779v3.9a2.778 2.778 0 1 0 5.557 0v-3.9a2.78 2.78 0 0 0 -2.78-2.779z"/><path d="m79.8 88.1a1.5 1.5 0 0 0 -.325-2.1 10.92 10.92 0 0 0 -8.461-2.034 9.82 9.82 0 0 0 -6.487 4.18 1.5 1.5 0 0 0 2.512 1.641 6.812 6.812 0 0 1 4.514-2.869 7.957 7.957 0 0 1 6.151 1.5 1.5 1.5 0 0 0 2.096-.318z"/><path d="m107.035 93.628a2.779 2.779 0 0 0 -2.777 2.779v3.9a2.779 2.779 0 1 0 5.558 0v-3.9a2.781 2.781 0 0 0 -2.781-2.779z"/><path d="m95.887 90.227a1.5 1.5 0 0 0 2.076-.436 6.812 6.812 0 0 1 4.513-2.869 7.953 7.953 0 0 1 6.153 1.5 1.5 1.5 0 0 0 1.771-2.422 10.929 10.929 0 0 0 -8.463-2.033 9.824 9.824 0 0 0 -6.486 4.18 1.5 1.5 0 0 0 .436 2.08z"/><path d="m25.89 236.293h-18.5a1.5 1.5 0 1 0 0 3h18.5a1.5 1.5 0 1 0 0-3z"/><path d="m248.61 236.293h-18.5a1.5 1.5 0 0 0 0 3h18.5a1.5 1.5 0 0 0 0-3z"/><path d="m215.337 236.293h-174.674a1.5 1.5 0 0 0 0 3h174.674a1.5 1.5 0 0 0 0-3z"/><path d="m7.39 227.539h241.22a1.5 1.5 0 0 0 0-3h-84.455l26.445-73.739a1.5 1.5 0 0 0 -.784-1.861l15.555-6.052a4.1 4.1 0 0 0 2.626-3.84v-1.947a4.125 4.125 0 0 0 -4.12-4.12h-32.845a6.8 6.8 0 0 0 -6.509 4.779l-.592 1.885-.589-.211a1.5 1.5 0 0 0 -1.919.906l-14.219 39.639a55.754 55.754 0 0 0 -38.077-26.578l-6.326-7.181v-2.135a45.756 45.756 0 0 0 30.321-37.736 13.989 13.989 0 0 0 .31-27.852q-.02-1.312-.117-2.628a23.872 23.872 0 1 0 -26.5-38.137 44.925 44.925 0 0 0 -19.015-4.175 45.691 45.691 0 0 0 -45.628 44.944 13.986 13.986 0 0 0 .308 27.847 45.756 45.756 0 0 0 30.32 37.739v2.135l-6.322 7.179a55.315 55.315 0 0 0 -45.678 54.583v16.556h-13.41a1.5 1.5 0 1 0 0 3zm178.11-71.393-23.532-8.44 1.773-4.943.642.23 20.66 7.411 2.223.8zm-18.115-17.489a3.809 3.809 0 0 1 3.647-2.678h32.848a1.122 1.122 0 0 1 1.12 1.121v1.953a1.114 1.114 0 0 1 -.714 1.044l-18.752 7.3-18.777-6.735zm-64.894 16.33a1.5 1.5 0 0 0 .31-.913v-3.312l3.9 4.431-5.284 22.1-11.356-6.115zm40.457-62.577a11.009 11.009 0 0 1 -9.559 10.894q.058-1.153.059-2.32v-19.465a11.069 11.069 0 0 1 9.5 10.89zm-55.148-55.854a41.982 41.982 0 0 1 18.74 4.373 1.5 1.5 0 0 0 1.83-.4 20.874 20.874 0 1 1 10.33 33.139 1.5 1.5 0 0 0 -.628-.047c-32.613 4.479-51.107-11.463-51.289-11.621a1.5 1.5 0 0 0 -2.5 1.109c-.128 14.855-13.176 18.38-13.729 18.522a1.5 1.5 0 0 0 -1.133 1.455v4.4h-4.267v-8.286a42.7 42.7 0 0 1 42.646-42.644zm-55.146 55.853a10.971 10.971 0 0 1 9.5-10.9v19.47q0 1.167.059 2.32a11.009 11.009 0 0 1 -9.559-10.89zm12.5 8.575v-10.5h5.771a1.5 1.5 0 0 0 1.5-1.5v-4.815c3.377-1.234 13.221-5.857 14.681-18.137 6.025 4.263 23.558 14.29 51.056 10.6a23.852 23.852 0 0 0 12.211.177c.045.8.075 1.6.075 2.389v21.781a42.647 42.647 0 0 1 -85.294 0zm42.646 45.646a45.522 45.522 0 0 0 12-1.612v8.545l-12 15.637-12-15.635v-8.546a45.522 45.522 0 0 0 12 1.611zm-15 4.13v3.313a1.5 1.5 0 0 0 .31.913l12.428 16.192-11.356 6.115-5.284-22.1zm-49 57.222a52.313 52.313 0 0 1 42.331-51.457l5.585 23.362a1.5 1.5 0 0 0 2.17.972l13.914-7.492 13.914 7.492a1.5 1.5 0 0 0 2.17-.972l5.583-23.354a52.736 52.736 0 0 1 36.393 27.19l-5.26 14.67a1.5 1.5 0 1 0 2.824 1.013l17.532-48.876 23.532 8.441-23.52 65.568h-29.333v-19.833a1.5 1.5 0 0 0 -3 0v19.833h-81.667v-19.833a1.5 1.5 0 0 0 -3 0v19.833h-20.168z"/><path d="m162.834 127.841h78.942a1.5 1.5 0 0 0 1.5-1.5v-90.4a1.5 1.5 0 0 0 -.439-1.061l-17.732-17.734a1.5 1.5 0 0 0 -1.061-.439h-61.21a1.5 1.5 0 0 0 -1.5 1.5v108.134a1.5 1.5 0 0 0 1.5 1.5zm12.4-3v-32.873h9.8v32.873zm22.172 0v-44.176h9.8v44.176zm22.171 0v-51.331h9.8v51.331zm5.969-103.013 12.61 12.61h-12.61zm-61.211-2.121h58.211v16.231a1.5 1.5 0 0 0 1.5 1.5h16.231v87.4h-7.9v-52.828a1.5 1.5 0 0 0 -1.5-1.5h-12.8a1.5 1.5 0 0 0 -1.5 1.5v52.831h-6.371v-45.676a1.5 1.5 0 0 0 -1.5-1.5h-12.8a1.5 1.5 0 0 0 -1.5 1.5v45.676h-6.371v-34.373a1.5 1.5 0 0 0 -1.5-1.5h-12.8a1.5 1.5 0 0 0 -1.5 1.5v34.373h-7.9z"/><path d="m202.3 70.265a18.354 18.354 0 1 0 -18.349-18.355 18.375 18.375 0 0 0 18.349 18.355zm-1.5-33.636v13.781h-13.777a15.381 15.381 0 0 1 13.777-13.781zm1.5 16.781a1.5 1.5 0 0 0 1.5-1.5v-15.281a15.355 15.355 0 1 1 -16.777 16.781z"/></g></svg>