<svg id="Layer_3" enable-background="new 0 0 64 64" height="512" viewBox="0 0 64 64" width="512" xmlns="http://www.w3.org/2000/svg"><g><g><path d="m58 46h-52c-2.209 0-4-1.791-4-4v-36c0-2.209 1.791-4 4-4h52c2.209 0 4 1.791 4 4v36c0 2.209-1.791 4-4 4z" fill="#758190"/></g><g><circle cx="8" cy="24" fill="#c8cdd3" r="2"/></g><g><path d="m14 6h44v36h-44z" fill="#a2dbf7"/></g><g><path d="m42 10h12v28h-12z" fill="#f7d881"/></g><g><circle cx="28" cy="30" fill="#758190" r="8"/></g><g><circle cx="28" cy="30" fill="#f7d881" r="4"/></g><g><g><path d="m26 45v-13c0-1.105.895-2 2-2 1.105 0 2 .895 2 2v11l2-3h2l2 3h2l2 3h2l2 3v6l-3 7h-12l-4-7-1-5 3-2z" fill="#fcd4a5"/></g></g><g><g><path d="m49 13h2v22h-2z" fill="#758190"/></g></g><g><g><path d="m45 13h2v22h-2z" fill="#758190"/></g></g><g><g><path d="m19.75 22.724-1.5-1.323c2.469-2.797 6.022-4.401 9.75-4.401 3.693 0 7.225 1.58 9.689 4.333l-1.49 1.334c-2.086-2.331-5.074-3.667-8.199-3.667-3.153 0-6.161 1.357-8.25 3.724z" fill="#758190"/></g></g></g></svg>