<svg id="Layer_1" enable-background="new 0 0 512 512" height="512" viewBox="0 0 512 512" width="512" xmlns="http://www.w3.org/2000/svg"><g><path d="m479.235 192.009c-23.036.525-37.985 24.695-28.225 45.531-17.55 14.89-42.03 30.21-55.13 26.94-1.29-.32-7.83-8.42-7.88-39.15-.02-12.56 1.06-25.02 2.07-33.91 15.872-3.054 27.593-17.868 25.736-34.98-1.87-17.233-16.871-29.574-34.163-28.358-23.649 1.663-37.497 28.181-24.924 48.618-12.05 17.96-30.97 38.74-44.19 39.29-1.67-.94-12.36-8.48-26.73-53.27-5.468-17.055-11.19-40.303-11.19-40.71 8.62-6.164 14.042-16.508 13.327-28.042-.984-15.868-13.793-28.782-29.653-29.888-18.678-1.303-34.283 13.514-34.283 31.92 0 10.71 5.28 20.21 13.39 26.01 0 .335-5.077 21.649-11.19 40.71-14.37 44.79-25.06 52.33-26.73 53.27-13.22-.55-32.15-21.34-44.19-39.29 12.568-20.429-1.267-46.949-24.915-48.617-17.293-1.22-32.3 11.119-34.171 28.354-1.858 17.113 9.863 31.929 25.736 34.983 1.01 8.89 2.09 21.35 2.07 33.91-.05 30.73-6.59 38.83-7.88 39.15-13.1 3.28-37.58-12.05-55.13-26.94 9.76-20.834-5.197-45.009-28.229-45.531-16.837-.382-31.336 12.617-32.659 29.406-1.442 18.293 12.583 33.715 30.378 34.545 7.883 15.037 24.941 50.077 36.827 92.371.608 2.164 2.569 3.669 4.817 3.669h367.751c2.248 0 4.209-1.505 4.817-3.669 11.887-42.303 28.954-77.334 36.837-92.371 17.783-.84 31.809-16.249 30.368-34.542-1.321-16.792-15.823-29.793-32.662-29.409zm-223.235 135.991c-14.35 0-24-14.47-24-36s9.65-36 24-36 24 14.47 24 36-9.65 36-24 36z"/><path d="m76.493 389.78c2.203 13.867 3.504 28.045 3.507 42.17.002 8.842 7.071 16.05 15.913 16.05h320.174c8.842 0 15.911-7.208 15.913-16.05.003-14.124 1.305-28.302 3.507-42.17.482-3.035-1.859-5.78-4.932-5.78h-349.15c-3.073 0-5.415 2.745-4.932 5.78z"/></g></svg>