<svg xmlns="http://www.w3.org/2000/svg" width="152" height="136.526" viewBox="0 0 152 136.526">
    <g id="Group_230" data-name="Group 230" transform="translate(-118 -71)">
        <g id="baby-boy" transform="translate(118 71)">
            <g id="Group_172" data-name="Group 172" transform="translate(72.785 86.474)">
                <g id="Group_171" data-name="Group 171" transform="translate(0)">
                    <g id="Group_170" data-name="Group 170">
                        <g id="Group_169" data-name="Group 169">
                            <path id="Path_146" data-name="Path 146" d="M338.2,361.015H320V329.172a9.1,9.1,0,0,1,9.1-9.1h9.1Z" transform="translate(-320 -320.074)" fill="#23aae6"/>
                        </g>
                    </g>
                </g>
            </g>
            <g id="Group_176" data-name="Group 176" transform="translate(72.785 127.415)">
                <g id="Group_175" data-name="Group 175" transform="translate(0)">
                    <g id="Group_174" data-name="Group 174">
                        <g id="Group_173" data-name="Group 173">
                            <path id="Path_147" data-name="Path 147" d="M340.471,473.172h-18.2A2.275,2.275,0,0,1,320,470.9v-6.824h18.2a4.549,4.549,0,0,1,4.549,4.549V470.9A2.275,2.275,0,0,1,340.471,473.172Z" transform="translate(-320 -464.074)" fill="#f0915a"/>
                        </g>
                    </g>
                </g>
            </g>
            <g id="Group_180" data-name="Group 180" transform="translate(22.745 86.474)">
                <g id="Group_179" data-name="Group 179">
                    <g id="Group_178" data-name="Group 178">
                        <g id="Group_177" data-name="Group 177">
                            <path id="Path_148" data-name="Path 148" d="M175.843,320.074A22.745,22.745,0,0,0,153.1,342.819v9.1H144v13.647a4.549,4.549,0,0,0,4.549,4.549H162.2a18.2,18.2,0,0,0,18.2-18.2V320.074Z" transform="translate(-144 -320.074)" fill="#23aae6"/>
                        </g>
                    </g>
                </g>
            </g>
            <g id="Group_184" data-name="Group 184" transform="translate(0 116.042)">
                <g id="Group_183" data-name="Group 183" transform="translate(0)">
                    <g id="Group_182" data-name="Group 182">
                        <g id="Group_181" data-name="Group 181">
                            <path id="Path_149" data-name="Path 149" d="M66.275,443.786h2.275a4.549,4.549,0,0,0,4.549-4.549V424.074H66.275A2.275,2.275,0,0,0,64,426.349v15.163A2.274,2.274,0,0,0,66.275,443.786Z" transform="translate(-64 -424.074)" fill="#fab991"/>
                        </g>
                    </g>
                </g>
            </g>
            <g id="Group_188" data-name="Group 188" transform="translate(9.098 86.474)">
                <g id="Group_187" data-name="Group 187">
                    <g id="Group_186" data-name="Group 186">
                        <g id="Group_185" data-name="Group 185">
                            <path id="Path_150" data-name="Path 150" d="M127.843,320.074A22.745,22.745,0,0,0,105.1,342.819v6.824H96v15.922a4.549,4.549,0,0,0,4.549,4.549H114.2a18.2,18.2,0,0,0,18.2-18.2h13.647v9.1h18.2v-11a22.746,22.746,0,0,0,13.647-20.847v-9.1Z" transform="translate(-96 -320.074)" fill="#5ad7ff"/>
                        </g>
                    </g>
                </g>
            </g>
            <g id="Group_192" data-name="Group 192" transform="translate(59.137 127.415)">
                <g id="Group_191" data-name="Group 191" transform="translate(0)">
                    <g id="Group_190" data-name="Group 190">
                        <g id="Group_189" data-name="Group 189">
                            <path id="Path_151" data-name="Path 151" d="M292.471,473.172h-18.2A2.275,2.275,0,0,1,272,470.9v-6.824h18.2a4.549,4.549,0,0,1,4.549,4.549V470.9A2.275,2.275,0,0,1,292.471,473.172Z" transform="translate(-272 -464.074)" fill="#fab991"/>
                        </g>
                    </g>
                </g>
            </g>
            <g id="Group_196" data-name="Group 196" transform="translate(72.785 77.376)">
                <g id="Group_195" data-name="Group 195" transform="translate(0)">
                    <g id="Group_194" data-name="Group 194">
                        <g id="Group_193" data-name="Group 193">
                            <circle id="Ellipse_30" data-name="Ellipse 30" cx="9.098" cy="9.098" r="9.098" fill="#ffd205"/>
                        </g>
                    </g>
                </g>
            </g>
            <g id="Group_200" data-name="Group 200" transform="translate(36.392 13.689)">
                <g id="Group_199" data-name="Group 199" transform="translate(0 0)">
                    <g id="Group_198" data-name="Group 198">
                        <g id="Group_197" data-name="Group 197">
                            <path id="Path_152" data-name="Path 152" d="M228.392,64.074a36.392,36.392,0,1,0,0,72.785h13.647a22.745,22.745,0,0,0,22.745-22.745V100.466A36.392,36.392,0,0,0,228.392,64.074Z" transform="translate(-192 -64.074)" fill="#fab991"/>
                        </g>
                    </g>
                </g>
            </g>
            <g id="Group_204" data-name="Group 204" transform="translate(52.314 50.081)">
                <g id="Group_203" data-name="Group 203" transform="translate(0 0)">
                    <g id="Group_202" data-name="Group 202">
                        <g id="Group_201" data-name="Group 201">
                            <path id="Path_153" data-name="Path 153" d="M259.373,192.074v22.745a11.373,11.373,0,1,1,0-22.745Z" transform="translate(-248 -192.074)" fill="#f0915a"/>
                        </g>
                    </g>
                </g>
            </g>
            <g id="Group_213" data-name="Group 213" transform="translate(77.334 50.081)">
                <g id="Group_208" data-name="Group 208" transform="translate(0 0)">
                    <g id="Group_207" data-name="Group 207">
                        <g id="Group_206" data-name="Group 206">
                            <g id="Group_205" data-name="Group 205">
                                <circle id="Ellipse_31" data-name="Ellipse 31" cx="3.412" cy="3.412" r="3.412" fill="#463c4b"/>
                            </g>
                        </g>
                    </g>
                </g>
                <g id="Group_212" data-name="Group 212" transform="translate(18.196 0)">
                    <g id="Group_211" data-name="Group 211">
                        <g id="Group_210" data-name="Group 210">
                            <g id="Group_209" data-name="Group 209">
                                <circle id="Ellipse_32" data-name="Ellipse 32" cx="3.412" cy="3.412" r="3.412" fill="#463c4b"/>
                            </g>
                        </g>
                    </g>
                </g>
            </g>
            <g id="Group_217" data-name="Group 217" transform="translate(89.464 59.18)">
                <g id="Group_216" data-name="Group 216">
                    <g id="Group_215" data-name="Group 215">
                        <g id="Group_214" data-name="Group 214">
                            <path id="Path_154" data-name="Path 154" d="M381.7,235.447a3.033,3.033,0,0,1-3.033-3.033v-8.34a6.065,6.065,0,0,1,6.065,6.065v2.275A3.032,3.032,0,0,1,381.7,235.447Z" transform="translate(-378.666 -224.074)" fill="#f0915a"/>
                        </g>
                    </g>
                </g>
            </g>
            <g id="Group_221" data-name="Group 221" transform="translate(72.785 61.454)">
                <g id="Group_220" data-name="Group 220" transform="translate(0)">
                    <g id="Group_219" data-name="Group 219">
                        <g id="Group_218" data-name="Group 218">
                            <path id="Path_155" data-name="Path 155" d="M326.824,236.623h-4.549a2.275,2.275,0,1,1,0-4.549h4.549a2.275,2.275,0,1,1,0,4.549Z" transform="translate(-320 -232.074)" fill="#f0915a"/>
                        </g>
                    </g>
                </g>
            </g>
            <g id="Group_225" data-name="Group 225" transform="translate(104.628 61.454)">
                <g id="Group_224" data-name="Group 224">
                    <g id="Group_223" data-name="Group 223">
                        <g id="Group_222" data-name="Group 222">
                            <path id="Path_156" data-name="Path 156" d="M432,234.349a2.275,2.275,0,0,0,2.275,2.275h2.161c.074-.748.113-1.506.113-2.274v-2.275h-2.275A2.275,2.275,0,0,0,432,234.349Z" transform="translate(-432 -232.074)" fill="#f0915a"/>
                        </g>
                    </g>
                </g>
            </g>
            <g id="Group_229" data-name="Group 229" transform="translate(80.745 0)">
                <g id="Group_228" data-name="Group 228" transform="translate(0)">
                    <g id="Group_227" data-name="Group 227">
                        <g id="Group_226" data-name="Group 226">
                            <path id="Path_157" data-name="Path 157" d="M351.749,42.883h-2.611a1.137,1.137,0,1,1,0-2.275h2.611A14.464,14.464,0,0,0,366.2,26.161a7.97,7.97,0,0,0-7.961-7.961,5.693,5.693,0,0,0-5.686,5.686,3.416,3.416,0,0,0,3.412,3.412,1.137,1.137,0,1,1,0,2.275,5.693,5.693,0,0,1-5.686-5.686,7.97,7.97,0,0,1,7.961-7.961,10.247,10.247,0,0,1,10.235,10.235A16.741,16.741,0,0,1,351.749,42.883Z" transform="translate(-348 -15.926)" fill="#463c4b"/>
                        </g>
                    </g>
                </g>
            </g>
        </g>
        <g id="chrome" transform="translate(218.58 156.106)" opacity="0.8">
            <path id="Path_158" data-name="Path 158" d="M97.723,16.07H73.9a9.641,9.641,0,0,0-8.42,14.354L53.568,9.986A25.694,25.694,0,0,1,97.723,16.07Z" transform="translate(-48.188 0)" fill="#f44336"/>
            <path id="Path_159" data-name="Path 159" d="M252.943,169.662a25.73,25.73,0,0,1-25.709,25.709,22.933,22.933,0,0,1-3.214-.214l11.569-20.674a9.664,9.664,0,0,0-3.535-13.176,9.551,9.551,0,0,0-4.8-1.285h23.8A25.348,25.348,0,0,1,252.943,169.662Z" transform="translate(-201.524 -143.951)" fill="#ffc107"/>
            <path id="Path_160" data-name="Path 160" d="M34.067,119.98,22.5,140.654h-.021a25.694,25.694,0,0,1-17.1-41.22l11.912,20.439.064.107a9.641,9.641,0,0,0,16.711,0Z" transform="translate(-0.001 -89.448)" fill="#4caf50"/>
            <path id="Path_161" data-name="Path 161" d="M177.916,174.481a9.641,9.641,0,0,1-16.711,0l-.064-.107a9.641,9.641,0,0,1,8.42-14.354h.021a9.551,9.551,0,0,1,4.8,1.285A9.664,9.664,0,0,1,177.916,174.481Z" transform="translate(-143.85 -143.95)" fill="#f44336"/>
            <path id="Path_162" data-name="Path 162" d="M177.916,174.481a9.641,9.641,0,0,1-16.711,0l-.064-.107a9.641,9.641,0,0,1,8.42-14.354h.021a9.551,9.551,0,0,1,4.8,1.285A9.664,9.664,0,0,1,177.916,174.481Z" transform="translate(-143.85 -143.95)" fill="#2196f3"/>
            <path id="Path_163" data-name="Path 163" d="M159.959,170.779a10.635,10.635,0,0,1-5.32-1.427,10.721,10.721,0,1,1,14.641-3.929h0A10.772,10.772,0,0,1,159.959,170.779Zm.056-19.282a8.574,8.574,0,1,0,7.406,12.855h0a8.57,8.57,0,0,0-7.4-12.854h0Z" transform="translate(-134.285 -134.356)" fill="#fafafa"/>
        </g>
    </g>
</svg>
