<svg id="happiness" xmlns="http://www.w3.org/2000/svg" width="213.756" height="213.756" viewBox="0 0 213.756 213.756">
    <path id="Path_107" data-name="Path 107" d="M134.466,64a8.35,8.35,0,0,0-8.35,8.35v2.087A39.662,39.662,0,0,1,86.454,114.1H66.361A39.662,39.662,0,0,1,26.7,74.437V72.35a8.35,8.35,0,0,0-16.7,0v2.087a56.463,56.463,0,0,0,40.884,54.2v46.22h50.1V128.9a56.463,56.463,0,0,0,41.832-54.463V72.35A8.35,8.35,0,0,0,134.466,64Z" transform="translate(-5.825 -37.28)" fill="#72d8ff"/>
    <rect id="Rectangle_44" data-name="Rectangle 44" width="40.079" height="72.005" transform="translate(49.995 137.576)" fill="#5a54e0"/>
    <g id="Group_151" data-name="Group 151" transform="translate(54.05 42.004)">
        <path id="Path_108" data-name="Path 108" d="M145.414,100.61h0a15.95,15.95,0,0,0-15.95,15.95v2.9a15.95,15.95,0,0,0,15.95,15.95h0a15.95,15.95,0,0,0,15.95-15.95v-2.9A15.95,15.95,0,0,0,145.414,100.61Z" transform="translate(-129.464 -100.61)" fill="#fcc69d"/>
        <path id="Path_109" data-name="Path 109" d="M319.287,273.079h0a15.95,15.95,0,0,0-15.95,15.95v2.9a15.95,15.95,0,0,0,15.95,15.95h0a15.95,15.95,0,0,0,15.95-15.95v-2.9A15.95,15.95,0,0,0,319.287,273.079Z" transform="translate(-230.746 -201.075)" fill="#fcc69d"/>
    </g>
    <path id="Path_110" data-name="Path 110" d="M308.339,236.469a8.35,8.35,0,0,0-8.35,8.35v2.087a39.662,39.662,0,0,1-39.662,39.662H240.234a39.662,39.662,0,0,1-39.662-39.662v-2.087a8.35,8.35,0,0,0-16.7,0v2.087a56.463,56.463,0,0,0,40.884,54.2v46.22h50.1V301.369a56.463,56.463,0,0,0,41.832-54.463v-2.087A8.35,8.35,0,0,0,308.339,236.469Z" transform="translate(-107.107 -137.745)" fill="#a0e557"/>
    <path id="Path_111" data-name="Path 111" d="M299.816,157.654a4.175,4.175,0,0,0-5.821.989l-.081.114a4.175,4.175,0,1,0,6.81,4.832l.081-.114A4.175,4.175,0,0,0,299.816,157.654Z" transform="translate(-170.758 -91.386)"/>
    <path id="Path_112" data-name="Path 112" d="M240.614,184.358a51.742,51.742,0,0,1-19.59,10.067,4.175,4.175,0,1,0,2.154,8.067,60.039,60.039,0,0,0,22.731-11.678,4.175,4.175,0,1,0-5.3-6.455Z" transform="translate(-126.943 -106.838)"/>
    <path id="Path_113" data-name="Path 113" d="M201.231,126a12.539,12.539,0,0,0-12.525,12.524v2.088a35.537,35.537,0,0,1-29.448,34.962,20.011,20.011,0,0,0,3.457-11.266v-2.9a20.125,20.125,0,0,0-40.25,0v2.9a20,20,0,0,0,3.3,11.016A35.545,35.545,0,0,1,97.64,140.617v-2.088a12.525,12.525,0,0,0-25.05,0v2.088a60.038,60.038,0,0,0,5.051,24.24H49.234V122.812a4.174,4.174,0,0,0-3.027-4.014A52.428,52.428,0,0,1,8.35,68.612V66.525a4.175,4.175,0,0,1,8.35,0v2.087a43.886,43.886,0,0,0,43.837,43.837H80.629a43.886,43.886,0,0,0,43.837-43.837V66.525a4.175,4.175,0,0,1,8.35,0v2.087a51.821,51.821,0,0,1-3.436,18.631,4.175,4.175,0,1,0,7.8,2.99,60.14,60.14,0,0,0,3.99-21.621V66.525a12.525,12.525,0,0,0-25.05,0v2.087a35.537,35.537,0,0,1-29.447,34.962A20.009,20.009,0,0,0,90.125,92.31v-2.9a20.125,20.125,0,1,0-40.25,0v2.9a20,20,0,0,0,3.3,11.016A35.544,35.544,0,0,1,25.05,68.612V66.525a12.525,12.525,0,0,0-25.05,0v2.087a59.933,59.933,0,0,0,12.462,36.753,61.172,61.172,0,0,0,28.422,20.506v43.16a4.175,4.175,0,0,0,4.175,4.175h.762v67.83a4.175,4.175,0,1,0,8.35,0v-67.83H82.127q1.369,2.129,2.926,4.163c.276.361.564.711.848,1.065v62.6a4.175,4.175,0,0,0,8.35,0V186.967a61.029,61.029,0,0,0,19.224,10.909v43.16a4.175,4.175,0,1,0,8.35,0v-46.22A4.174,4.174,0,0,0,118.8,190.8,52.427,52.427,0,0,1,80.94,140.617v-2.088a4.175,4.175,0,0,1,8.35,0v2.088a43.886,43.886,0,0,0,43.837,43.837H153.22a43.886,43.886,0,0,0,43.837-43.837v-2.088a4.175,4.175,0,0,1,8.35,0v2.088a52.265,52.265,0,0,1-38.734,50.429,4.175,4.175,0,0,0-3.1,4.033v30.231a4.175,4.175,0,0,0,8.35,0V198.2a60.631,60.631,0,0,0,41.832-57.581v-2.088A12.539,12.539,0,0,0,201.231,126ZM58.225,89.409a11.775,11.775,0,1,1,23.55,0v2.9a11.775,11.775,0,0,1-23.55,0Zm72.591,72a11.775,11.775,0,0,1,23.55,0v2.9a11.775,11.775,0,0,1-23.55,0Z" transform="translate(0 -31.455)"/>
    <path id="Path_114" data-name="Path 114" d="M395.975,492a4.176,4.176,0,1,0,2.952,1.223A4.2,4.2,0,0,0,395.975,492Z" transform="translate(-228.226 -286.594)"/>
    <path id="Path_115" data-name="Path 115" d="M161.842,374a4.175,4.175,0,0,0-4.175,4.175v49.264a4.175,4.175,0,1,0,8.35,0V378.175A4.175,4.175,0,0,0,161.842,374Z" transform="translate(-91.842 -217.858)"/>
    <path id="Path_116" data-name="Path 116" d="M460.175,95.539a4.175,4.175,0,0,0,4.175-4.175V86.175a4.175,4.175,0,0,0-8.35,0v5.189A4.175,4.175,0,0,0,460.175,95.539Z" transform="translate(-265.623 -47.766)"/>
    <path id="Path_117" data-name="Path 117" d="M460.175,155.109a4.175,4.175,0,0,0,4.175-4.175v-5.189a4.175,4.175,0,0,0-8.35,0v5.189A4.175,4.175,0,0,0,460.175,155.109Z" transform="translate(-265.623 -82.466)"/>
    <path id="Path_118" data-name="Path 118" d="M483.745,126.35h5.189a4.175,4.175,0,0,0,0-8.35h-5.189a4.175,4.175,0,1,0,0,8.35Z" transform="translate(-279.353 -68.736)"/>
    <path id="Path_119" data-name="Path 119" d="M424.175,126.35h5.189a4.175,4.175,0,0,0,0-8.35h-5.189a4.175,4.175,0,0,0,0,8.35Z" transform="translate(-244.653 -68.736)"/>
    <path id="Path_120" data-name="Path 120" d="M214.048,13.539a4.175,4.175,0,0,0,4.175-4.175V4.175a4.175,4.175,0,1,0-8.35,0V9.364A4.175,4.175,0,0,0,214.048,13.539Z" transform="translate(-122.253)"/>
    <path id="Path_121" data-name="Path 121" d="M214.048,73.109a4.175,4.175,0,0,0,4.175-4.175V63.745a4.175,4.175,0,1,0-8.35,0v5.189A4.175,4.175,0,0,0,214.048,73.109Z" transform="translate(-122.253 -34.7)"/>
    <path id="Path_122" data-name="Path 122" d="M237.618,44.35h5.189a4.175,4.175,0,1,0,0-8.35h-5.189a4.175,4.175,0,1,0,0,8.35Z" transform="translate(-135.982 -20.97)"/>
    <path id="Path_123" data-name="Path 123" d="M178.048,44.35h5.189a4.175,4.175,0,1,0,0-8.35h-5.189a4.175,4.175,0,1,0,0,8.35Z" transform="translate(-101.282 -20.97)"/>
</svg>
