<svg xmlns="http://www.w3.org/2000/svg" width="126.78" height="144.897" viewBox="0 0 126.78 144.897">
    <g id="shield" transform="translate(-32.012 -0.001)">
        <path id="Path_124" data-name="Path 124" d="M156.642,18.239,96.271.127a3.02,3.02,0,0,0-1.733,0L34.167,18.239a3.019,3.019,0,0,0-2.155,2.892V87.539c0,26.69,40.7,50.434,62.5,57.22a3.019,3.019,0,0,0,1.811,0c21.77-6.786,62.472-30.53,62.472-57.22V21.13A3.019,3.019,0,0,0,156.642,18.239Z" fill="#3ab081"/>
        <path id="Path_125" data-name="Path 125" d="M165.932,218.878a3.018,3.018,0,0,1-2.137-.882l-24.148-24.148a3.019,3.019,0,0,1,4.268-4.268l22.017,22.011,40.123-40.123a3.019,3.019,0,1,1,4.342,4.194l-.074.074L168.063,218A3.019,3.019,0,0,1,165.932,218.878Z" transform="translate(-76.567 -122.283)" fill="#fafafa"/>
    </g>
</svg>
