<svg xmlns="http://www.w3.org/2000/svg" width="155" height="155" viewBox="0 0 155 155">
    <g id="Group_242" data-name="Group 242" transform="translate(-104 -249)">
        <rect id="Rectangle_58" data-name="Rectangle 58" width="155" height="155" rx="20" transform="translate(104 249)" fill="#3ab081"/>
        <g id="Group_237" data-name="Group 237" transform="translate(133 278)">
            <path id="Path_176" data-name="Path 176" d="M307.035,484.633h-6.249A10.946,10.946,0,0,1,289.853,473.7H286.73a14.071,14.071,0,0,0,14.056,14.056h6.249A14.072,14.072,0,0,0,321.091,473.7h-3.123A10.944,10.944,0,0,1,307.035,484.633Z" transform="translate(-255.017 -414.829)" fill="#fff"/>
            <path id="Path_177" data-name="Path 177" d="M292.972,416.856a3.127,3.127,0,0,1,3.123,3.123h3.123a6.249,6.249,0,0,0-12.5,0h3.123A3.135,3.135,0,0,1,292.972,416.856Z" transform="translate(-255.01 -372.041)" fill="#fff"/>
            <path id="Path_178" data-name="Path 178" d="M374.749,413.74a6.254,6.254,0,0,0-6.249,6.249h3.123a3.123,3.123,0,0,1,6.246,0h3.123A6.246,6.246,0,0,0,374.749,413.74Z" transform="translate(-313.359 -372.048)" fill="#fff"/>
            <path id="Path_179" data-name="Path 179" d="M260.384,302.125H258.7a39.087,39.087,0,0,0-32.682-20.267v-1.6a5.306,5.306,0,0,0-1.561-3.77l-.914-.914a2.206,2.206,0,0,1,0-3.123l2.02-2.02-2.209-2.209-2.02,2.02a5.333,5.333,0,0,0,0,7.541l.914.914a2.191,2.191,0,0,1,.648,1.561v1.6a39.081,39.081,0,0,0-32.682,20.267h-1.682a12.509,12.509,0,0,0-12.494,12.494v6.249a12.506,12.506,0,0,0,11.4,12.44,38.878,38.878,0,0,0,10.816,16.511,8.741,8.741,0,0,0,.011,13.958.337.337,0,0,0,.052.037,12.053,12.053,0,0,0,11.492,1.544l7.635-2.934a9.163,9.163,0,0,0,14.022,0l7.638,2.934a12.053,12.053,0,0,0,11.492-1.544.339.339,0,0,1,.052-.037,8.741,8.741,0,0,0,.011-13.958,38.9,38.9,0,0,0,10.816-16.511,12.506,12.506,0,0,0,11.4-12.44v-6.249A12.5,12.5,0,0,0,260.384,302.125Zm-81.218,18.743v-6.249a9.381,9.381,0,0,1,9.372-9.372h.146a38.821,38.821,0,0,0-3.272,15.62,39.438,39.438,0,0,0,1.083,9.142A9.382,9.382,0,0,1,179.166,320.868Zm29.53,41.578a8.937,8.937,0,0,1-8.486-1.123.4.4,0,0,0-.043-.032,5.613,5.613,0,0,1,0-8.993.411.411,0,0,1,.043-.031,8.954,8.954,0,0,1,8.486-1.123l7.217,2.773a8.581,8.581,0,0,0-.011,5.764Zm15.766.12a5.754,5.754,0,1,1,5.936-5.753A5.855,5.855,0,0,1,224.462,362.566Zm24.3-1.275a.417.417,0,0,1-.043.032,8.955,8.955,0,0,1-8.486,1.123l-7.2-2.768a8.582,8.582,0,0,0-.011-5.764l7.217-2.773a8.937,8.937,0,0,1,8.486,1.123l.043.031a5.616,5.616,0,0,1,0,9Zm-1.031-13.067a12.037,12.037,0,0,0-8.621.006l-7.661,2.945a9.17,9.17,0,0,0-13.97,0l-7.664-2.945a12.006,12.006,0,0,0-8.621-.006,35.929,35.929,0,1,1,46.537,0Zm22.026-27.355a9.384,9.384,0,0,1-7.332,9.142,39.287,39.287,0,0,0,1.086-9.142,38.829,38.829,0,0,0-3.269-15.62h.146a9.381,9.381,0,0,1,9.372,9.372v6.249Z" transform="translate(-176.04 -268.22)" fill="#fff"/>
        </g>
    </g>
</svg>
