<svg xmlns="http://www.w3.org/2000/svg" width="185" height="185" viewBox="0 0 185 185">
  <g id="Group_238" data-name="Group 238" transform="translate(-61 -28)">
    <g id="Group_237" data-name="Group 237" transform="translate(90.287 56.622)">
      <path id="Path_176" data-name="Path 176" d="M313.183,487.943h-8.141A14.26,14.26,0,0,1,290.8,473.7H286.73a18.331,18.331,0,0,0,18.312,18.312h8.141A18.333,18.333,0,0,0,331.494,473.7h-4.068A14.258,14.258,0,0,1,313.183,487.943Z" transform="translate(-245.414 -397.004)" fill="#fff"/>
      <path id="Path_177" data-name="Path 177" d="M294.864,417.8a4.073,4.073,0,0,1,4.068,4.068H303a8.141,8.141,0,0,0-16.281,0h4.068A4.084,4.084,0,0,1,294.864,417.8Z" transform="translate(-245.408 -359.418)" fill="#fff"/>
      <path id="Path_178" data-name="Path 178" d="M376.641,413.74a8.148,8.148,0,0,0-8.141,8.141h4.068a4.068,4.068,0,1,1,8.137,0h4.068A8.137,8.137,0,0,0,376.641,413.74Z" transform="translate(-296.663 -359.424)" fill="#fff"/>
      <path id="Path_179" data-name="Path 179" d="M285.923,312.391h-2.191a50.922,50.922,0,0,0-42.577-26.4V283.9a6.913,6.913,0,0,0-2.034-4.912l-1.191-1.191a2.875,2.875,0,0,1,0-4.068l2.631-2.631-2.878-2.878-2.631,2.631a6.948,6.948,0,0,0,0,9.824l1.191,1.191a2.854,2.854,0,0,1,.844,2.034v2.086a50.914,50.914,0,0,0-42.577,26.4h-2.191a16.3,16.3,0,0,0-16.278,16.278v8.141a16.292,16.292,0,0,0,14.852,16.207,50.649,50.649,0,0,0,14.09,21.511A11.388,11.388,0,0,0,205,392.712a.44.44,0,0,0,.067.049,15.7,15.7,0,0,0,14.971,2.012l9.947-3.822a11.937,11.937,0,0,0,18.267,0l9.951,3.822a15.7,15.7,0,0,0,14.971-2.012.442.442,0,0,1,.067-.049,11.388,11.388,0,0,0,.015-18.185,50.683,50.683,0,0,0,14.09-21.511A16.292,16.292,0,0,0,302.2,336.809v-8.141A16.291,16.291,0,0,0,285.923,312.391Zm-105.81,24.418v-8.141a12.221,12.221,0,0,1,12.209-12.209h.19a50.575,50.575,0,0,0-4.263,20.35,51.38,51.38,0,0,0,1.411,11.911A12.222,12.222,0,0,1,180.112,336.809Zm38.471,54.167a11.644,11.644,0,0,1-11.056-1.463.525.525,0,0,0-.056-.041,7.313,7.313,0,0,1,0-11.716.54.54,0,0,1,.056-.041,11.665,11.665,0,0,1,11.056-1.463l9.4,3.613a11.18,11.18,0,0,0-.015,7.51Zm20.54.157a7.5,7.5,0,1,1,7.734-7.495A7.628,7.628,0,0,1,239.124,391.133Zm31.66-1.661a.539.539,0,0,1-.056.041,11.666,11.666,0,0,1-11.056,1.463l-9.384-3.606a11.18,11.18,0,0,0-.015-7.51l9.4-3.613a11.642,11.642,0,0,1,11.056,1.463c.019.015.037.026.056.041a7.317,7.317,0,0,1,0,11.72Zm-1.344-17.024a15.681,15.681,0,0,0-11.231.007l-9.981,3.837a11.946,11.946,0,0,0-18.2,0l-9.985-3.837a15.642,15.642,0,0,0-11.231-.007,46.808,46.808,0,1,1,60.628,0Zm28.7-35.638a12.225,12.225,0,0,1-9.552,11.911A51.183,51.183,0,0,0,290,336.809a50.586,50.586,0,0,0-4.259-20.35h.19a12.221,12.221,0,0,1,12.209,12.209v8.141Z" transform="translate(-176.04 -268.22)" fill="#fff"/>
    </g>
    <g id="Rectangle_55" data-name="Rectangle 55" transform="translate(61 28)" fill="none" stroke="#fff" stroke-width="5">
      <rect width="185" height="185" rx="26" stroke="none"/>
      <rect x="2.5" y="2.5" width="180" height="180" rx="23.5" fill="none"/>
    </g>
  </g>
</svg>
